<svg width="772" height="346" viewBox="0 0 772 346" fill="none" xmlns="http://www.w3.org/2000/svg">
    <path fill-rule="evenodd" clip-rule="evenodd" d="M374 22.1667V9H388V22.1667H374ZM374 74.8333V48.5H388V74.8333H374ZM374 127.5V101.167H388V127.5H374ZM374 180.167V153.833H388V180.167H374ZM374 232.833V206.5H388V232.833H374ZM374 285.5V259.167H388V285.5H374ZM374 325V311.833H388V325H374Z" fill="#104626"/>
    <path fill-rule="evenodd" clip-rule="evenodd" d="M38.5833 173H7L7 160H38.5833V173ZM164.917 173L101.75 173V160L164.917 160V173ZM291.25 173L228.083 173V160L291.25 160V173ZM417.583 173L354.417 173V160L417.583 160V173ZM543.917 173L480.75 173V160L543.917 160V173ZM670.25 173L607.083 173V160H670.25V173ZM765 173H733.417V160L765 160V173Z" fill="#104626"/>
    <g filter="url(#filter0_d_0_1)">
        <path d="M386 330C489.224 330 582.91 312.464 650.977 283.92C685 269.652 712.859 252.535 732.287 233.273C751.733 213.992 763 192.269 763 169C763 145.731 751.733 124.008 732.287 104.727C712.859 85.4648 685 68.3481 650.977 54.0804C582.91 25.5361 489.224 8 386 8C282.776 8 189.09 25.5361 121.023 54.0804C86.9996 68.3481 59.1413 85.4648 39.7133 104.727C20.2667 124.008 9 145.731 9 169C9 192.269 20.2667 213.992 39.7133 233.273C59.1413 252.535 86.9996 269.652 121.023 283.92C189.09 312.464 282.776 330 386 330Z" stroke="#104626" stroke-width="10" shape-rendering="crispEdges"/>
    </g>
    <path d="M124 286C124 286 156.541 221.276 380.994 218.103C605.446 214.93 648 286 648 286" stroke="#104626" stroke-width="8" stroke-dasharray="16 16"/>
    <path d="M124 50C124 50 156.541 110.917 380.994 113.903C605.446 116.889 648 50 648 50" stroke="#104626" stroke-width="8" stroke-dasharray="16 16"/>
    <path d="M381.004 5.5C379.821 16.8395 677.866 65.2894 679.989 164.498C682.112 263.706 381.004 330.5 381.004 330.5" stroke="#104626" stroke-width="8" stroke-dasharray="16 16"/>
    <path d="M380.997 5.5C382.143 16.8395 93.0699 65.2894 91.0108 164.498C88.9517 263.706 380.997 331 380.997 331" stroke="#104626" stroke-width="8" stroke-dasharray="16 16"/>
    <circle cx="381.5" cy="166.5" r="103" stroke="#461010" stroke-width="11"/>
    <circle cx="381.5" cy="166.5" r="110.5" stroke="#104626" stroke-width="4"/>
    <circle cx="381" cy="170" r="37.5" fill="#D20E0E" stroke="#104626" stroke-width="5"/>
    <g filter="url(#filter1_d_0_1)">
        <mask id="path-11-outside-1_0_1" maskUnits="userSpaceOnUse" x="211" y="0" width="354" height="338" fill="black">
            <rect fill="white" x="211" width="354" height="338"/>
            <path d="M229.138 12.2959V59.3725H229.928C232.447 59.3725 234.272 57.0699 235.404 52.4645C236.536 47.8592 237.258 41.0649 237.571 32.0817H238.683V92.6331H237.571C237.336 86.0379 236.839 80.6366 236.077 76.4292C235.336 72.2219 234.467 69.4076 233.471 67.9862C232.476 66.5079 231.031 65.7688 229.138 65.7688V98.3471C229.138 104.715 229.226 108.61 229.401 110.031C229.597 111.452 229.948 112.618 230.455 113.528C230.963 114.437 231.783 114.892 232.915 114.892H235.287C238.996 114.892 241.963 112.391 244.188 107.387C246.433 102.384 248.043 94.7652 249.019 84.5312H250.103L248.316 121.288H214V118.133H215.318C216.469 118.133 217.397 117.536 218.099 116.342C218.607 115.546 218.997 114.181 219.27 112.248C219.485 110.884 219.593 107.302 219.593 101.503V25.4296C219.593 20.1989 219.544 16.9865 219.446 15.7926C219.251 13.8026 218.89 12.2675 218.363 11.1872C217.621 9.59527 216.606 8.79929 215.318 8.79929H214V5.64379H247.233V39.8425H246.12C245.554 31.4847 244.754 25.4865 243.719 21.8477C242.704 18.2089 241.26 15.5367 239.386 13.831C238.293 12.8076 236.243 12.2959 233.237 12.2959H229.138Z"/>
            <path d="M259.73 68.5831V100.991C259.73 107.245 259.857 111.197 260.111 112.845C260.384 114.437 260.852 115.717 261.516 116.683C262.18 117.65 263.419 118.133 265.235 118.133V121.288H244.914V118.133C246.749 118.133 247.988 117.65 248.633 116.683C249.296 115.66 249.755 114.352 250.009 112.76C250.282 111.168 250.419 107.245 250.419 100.991V25.9413C250.419 19.6872 250.282 15.7641 250.009 14.1722C249.755 12.5233 249.296 11.2157 248.633 10.2491C247.969 9.28256 246.729 8.79929 244.914 8.79929V5.64379H263.361C268.163 5.64379 271.676 6.61034 273.901 8.54344C276.127 10.4765 277.942 14.0585 279.348 19.2892C280.753 24.4631 281.456 30.5466 281.456 37.5399C281.456 46.0683 280.402 53.1184 278.294 58.6902C276.947 62.2153 275.063 64.8591 272.642 66.6216L282.188 105.767C283.437 110.827 284.325 113.982 284.852 115.233C285.653 116.996 286.58 117.962 287.634 118.133V121.288H275.131L262.336 68.5831H259.73ZM259.73 11.8695V62.528H261.399C264.112 62.528 266.142 61.8173 267.489 60.3959C268.836 58.9177 269.89 56.3023 270.651 52.5498C271.432 48.7405 271.823 43.794 271.823 37.7105C271.823 28.8978 271.11 22.3878 269.685 18.1805C268.28 13.9732 266.006 11.8695 262.863 11.8695H259.73Z"/>
            <path d="M286.428 8.79929L286.75 5.64379H306.133L305.753 8.79929C303.996 8.79929 302.649 9.93641 301.712 12.2106C300.794 14.4849 299.984 19.2323 299.282 26.453L292.02 100.479C291.493 105.71 291.23 109.207 291.23 110.969C291.23 113.016 291.503 114.608 292.049 115.745C292.752 117.223 294.079 118.019 296.031 118.133L295.739 121.288H276.033L276.355 118.133C278.327 118.133 279.771 117.053 280.689 114.892C281.606 112.675 282.436 107.87 283.177 100.479L290.498 26.453C290.946 21.9045 291.171 18.4648 291.171 16.1337C291.171 14.03 290.898 12.3812 290.351 11.1872C289.805 9.99326 288.497 9.19728 286.428 8.79929Z"/>
            <path d="M307.445 5.64379L327.033 77.3674V27.647C327.033 20.7106 326.692 16.02 326.009 13.5752C325.072 10.2775 323.5 8.68558 321.294 8.79929V5.64379H334.412V8.79929C332.733 9.4247 331.601 10.2491 331.016 11.2725C330.449 12.2391 330 13.8595 329.669 16.1337C329.356 18.3511 329.2 22.1888 329.2 27.647V123.932H328.205L301.355 27.647V101.162C301.355 107.814 301.872 112.305 302.906 114.636C303.961 116.967 305.161 118.133 306.508 118.133H307.445V121.288H293.361V118.133C295.547 118.076 297.07 116.768 297.929 114.21C298.788 111.651 299.217 107.302 299.217 101.162V19.545L298.368 16.4748C297.529 13.4046 296.787 11.3862 296.143 10.4197C295.499 9.45313 294.571 8.913 293.361 8.79929V5.64379H307.445Z"/>
            <path d="M350.013 4.0234C356.337 3.34113 361.471 8.71401 365.414 20.142C369.377 31.57 371.358 45.8693 371.358 63.0397C371.358 77.7085 369.884 90.6148 366.936 101.758C363.032 116.541 357.518 123.932 350.393 123.932C343.249 123.932 337.725 116.882 333.821 102.782C330.736 91.6382 329.194 78.4192 329.194 63.125C329.194 45.9545 331.195 31.6553 335.197 20.2273C339.218 8.74243 344.156 3.34113 350.013 4.0234ZM350.364 9.48156C346.733 9.48156 343.971 14.8829 342.078 25.6855C340.535 34.555 339.764 47.2907 339.764 63.8925C339.764 83.6215 340.955 98.205 343.337 107.643C344.996 114.238 347.319 117.536 350.305 117.536C352.316 117.536 353.995 116.115 355.342 113.272C357.059 109.633 358.396 103.834 359.353 95.8739C360.309 87.8573 360.788 77.4242 360.788 64.5748C360.788 49.2806 360.3 37.8526 359.324 30.2908C358.348 22.6721 357.098 17.2992 355.576 14.1722C354.073 11.0451 352.335 9.48156 350.364 9.48156Z"/>
            <path d="M378.813 8.79929L379.135 5.64379H398.518L398.137 8.79929C396.381 8.79929 395.034 9.93641 394.097 12.2106C393.179 14.4849 392.369 19.2323 391.667 26.453L384.405 100.479C383.878 105.71 383.615 109.207 383.615 110.969C383.615 113.016 383.888 114.608 384.434 115.745C385.137 117.223 386.464 118.019 388.416 118.133L388.124 121.288H368.418L368.74 118.133C370.712 118.133 372.156 117.053 373.074 114.892C373.991 112.675 374.821 107.87 375.562 100.479L382.883 26.453C383.331 21.9045 383.556 18.4648 383.556 16.1337C383.556 14.03 383.283 12.3812 382.736 11.1872C382.19 9.99326 380.882 9.19728 378.813 8.79929Z"/>
            <path d="M413.065 3L413.387 41.5482H412.186C411.62 31.8827 410.224 24.1219 407.999 18.2658C405.793 12.3528 403.402 9.39628 400.825 9.39628C398.834 9.39628 397.253 10.9598 396.082 14.0869C394.93 17.1571 394.354 20.7106 394.354 24.7473C394.354 27.3058 394.559 29.5801 394.969 31.57C395.535 34.2423 396.443 36.886 397.692 39.5014C398.61 41.3777 400.728 44.7037 404.046 49.4796C408.692 56.1317 411.825 62.4143 413.445 68.3273C415.046 74.2403 415.846 81.0061 415.846 88.6248C415.846 98.2903 414.548 106.62 411.952 113.613C409.375 120.549 406.096 124.018 402.114 124.018C400.864 124.018 399.683 123.648 398.571 122.909C397.458 122.17 396.063 120.777 394.384 118.73C393.447 117.593 392.676 117.024 392.071 117.024C391.563 117.024 391.026 117.593 390.46 118.73C389.894 119.867 389.435 121.601 389.084 123.932H388.001V80.267H389.084C389.943 92.5479 391.592 101.929 394.032 108.411C396.492 114.835 399.137 118.048 401.967 118.048C404.154 118.048 405.891 116.314 407.179 112.845C408.487 109.377 409.141 105.34 409.141 100.735C409.141 98.006 408.887 95.3622 408.38 92.8037C407.892 90.2452 407.14 87.8288 406.125 85.5546C405.11 83.2235 403.314 80.2102 400.738 76.5145C397.126 71.3406 394.53 66.9343 392.949 63.2956C391.368 59.6568 390.148 55.5916 389.289 51.1C388.45 46.6084 388.03 41.6619 388.03 36.2606C388.03 27.05 389.191 19.2039 391.514 12.7223C393.837 6.24078 396.765 3 400.298 3C401.587 3 402.836 3.45485 404.046 4.36454C404.964 5.04681 406.076 6.32606 407.384 8.2023C408.712 10.0217 409.639 10.9314 410.166 10.9314C410.673 10.9314 411.074 10.4765 411.366 9.56684C411.659 8.65715 411.932 6.4682 412.186 3H413.065Z"/>
            <path d="M417.568 8.79929L417.89 5.64379H437.273L436.893 8.79929C435.136 8.79929 433.789 9.93641 432.852 12.2106C431.935 14.4849 431.125 19.2323 430.422 26.453L423.16 100.479C422.633 105.71 422.37 109.207 422.37 110.969C422.37 113.016 422.643 114.608 423.19 115.745C423.892 117.223 425.22 118.019 427.172 118.133L426.879 121.288H407.173L407.495 118.133C409.467 118.133 410.912 117.053 411.829 114.892C412.746 112.675 413.576 107.87 414.318 100.479L421.638 26.453C422.087 21.9045 422.311 18.4648 422.311 16.1337C422.311 14.03 422.038 12.3812 421.491 11.1872C420.945 9.99326 419.637 9.19728 417.568 8.79929Z"/>
            <path d="M424.443 121.288V118.133H425.76C426.912 118.133 427.791 117.621 428.396 116.598C429.02 115.518 429.479 114.068 429.772 112.248C429.948 111.054 430.035 107.473 430.035 101.503V25.4296C430.035 19.5166 429.928 15.821 429.713 14.3427C429.499 12.8645 429.059 11.5852 428.396 10.505C427.752 9.36785 426.873 8.79929 425.76 8.79929H424.443V5.64379H442.216C446.959 5.64379 450.776 7.52003 453.665 11.2725C457.198 15.8778 459.872 22.8427 461.687 32.167C463.522 41.4914 464.44 52.0381 464.44 63.8073C464.44 71.9376 463.991 79.4426 463.093 86.3222C462.195 93.1448 461.033 98.802 459.608 103.294C458.183 107.728 456.534 111.31 454.66 114.039C452.806 116.712 450.532 118.787 447.838 120.265C446.647 120.947 444.773 121.288 442.216 121.288H424.443ZM439.581 12.2106V102.441C439.581 107.217 439.659 110.145 439.815 111.225C439.971 112.305 440.235 113.13 440.606 113.698C441.133 114.551 441.894 114.977 442.889 114.977C446.149 114.977 448.638 111.737 450.356 105.255C452.698 96.4993 453.87 82.9108 453.87 64.4895C453.87 49.6502 453.069 37.7957 451.469 28.9262C450.2 21.9898 448.57 17.2708 446.579 14.7691C445.173 13.0066 442.841 12.1538 439.581 12.2106Z"/>
            <path d="M484.151 4.0234C490.476 3.34113 495.609 8.71401 499.553 20.142C503.515 31.57 505.496 45.8693 505.496 63.0397C505.496 77.7085 504.023 90.6148 501.075 101.758C497.171 116.541 491.657 123.932 484.532 123.932C477.387 123.932 471.863 116.882 467.959 102.782C464.875 91.6382 463.333 78.4192 463.333 63.125C463.333 45.9545 465.334 31.6553 469.335 20.2273C473.356 8.74243 478.295 3.34113 484.151 4.0234ZM484.502 9.48156C480.872 9.48156 478.11 14.8829 476.216 25.6855C474.674 34.555 473.903 47.2907 473.903 63.8925C473.903 83.6215 475.094 98.205 477.475 107.643C479.134 114.238 481.457 117.536 484.444 117.536C486.454 117.536 488.133 116.115 489.48 113.272C491.198 109.633 492.535 103.834 493.492 95.8739C494.448 87.8573 494.926 77.4242 494.926 64.5748C494.926 49.2806 494.438 37.8526 493.462 30.2908C492.486 22.6721 491.237 17.2992 489.714 14.1722C488.211 11.0451 486.474 9.48156 484.502 9.48156Z"/>
            <path d="M514.597 68.5831V100.991C514.597 107.245 514.724 111.197 514.977 112.845C515.251 114.437 515.719 115.717 516.383 116.683C517.046 117.65 518.286 118.133 520.101 118.133V121.288H499.781V118.133C501.616 118.133 502.855 117.65 503.499 116.683C504.163 115.66 504.622 114.352 504.876 112.76C505.149 111.168 505.286 107.245 505.286 100.991V25.9413C505.286 19.6872 505.149 15.7641 504.876 14.1722C504.622 12.5233 504.163 11.2157 503.499 10.2491C502.836 9.28256 501.596 8.79929 499.781 8.79929V5.64379H518.227C523.029 5.64379 526.543 6.61034 528.768 8.54344C530.994 10.4765 532.809 14.0585 534.214 19.2892C535.62 24.4631 536.323 30.5466 536.323 37.5399C536.323 46.0683 535.269 53.1184 533.16 58.6902C531.813 62.2153 529.93 64.8591 527.509 66.6216L537.055 105.767C538.304 110.827 539.192 113.982 539.719 115.233C540.519 116.996 541.447 117.962 542.501 118.133V121.288H529.998L517.203 68.5831H514.597ZM514.597 11.8695V62.528H516.266C518.979 62.528 521.009 61.8173 522.356 60.3959C523.703 58.9177 524.757 56.3023 525.518 52.5498C526.299 48.7405 526.689 43.794 526.689 37.7105C526.689 28.8978 525.977 22.3878 524.552 18.1805C523.146 13.9732 520.872 11.8695 517.73 11.8695H514.597Z"/>
            <path d="M541.294 8.79929L541.616 5.64379H561L560.619 8.79929C558.863 8.79929 557.516 9.93641 556.579 12.2106C555.661 14.4849 554.851 19.2323 554.148 26.453L546.887 100.479C546.36 105.71 546.096 109.207 546.096 110.969C546.096 113.016 546.37 114.608 546.916 115.745C547.619 117.223 548.946 118.019 550.898 118.133L550.606 121.288H530.9L531.222 118.133C533.194 118.133 534.638 117.053 535.555 114.892C536.473 112.675 537.303 107.87 538.044 100.479L545.364 26.453C545.813 21.9045 546.038 18.4648 546.038 16.1337C546.038 14.03 545.765 12.3812 545.218 11.1872C544.671 9.99326 543.364 9.19728 541.294 8.79929Z"/>
            <path d="M304.814 215.091C311.139 214.409 316.273 219.782 320.216 231.21C324.178 242.638 326.159 256.937 326.159 274.107C326.159 288.776 324.686 301.683 321.738 312.826C317.834 327.609 312.32 335 305.195 335C298.05 335 292.526 327.95 288.622 313.85C285.538 302.706 283.996 289.487 283.996 274.193C283.996 257.022 285.997 242.723 289.998 231.295C294.02 219.81 298.958 214.409 304.814 215.091ZM305.166 220.549C301.535 220.549 298.773 225.951 296.879 236.753C295.337 245.623 294.566 258.358 294.566 274.96C294.566 294.689 295.757 309.273 298.138 318.711C299.798 325.306 302.12 328.604 305.107 328.604C307.118 328.604 308.796 327.182 310.143 324.34C311.861 320.701 313.198 314.901 314.155 306.942C315.111 298.925 315.589 288.492 315.589 275.643C315.589 260.348 315.101 248.92 314.125 241.359C313.149 233.74 311.9 228.367 310.377 225.24C308.874 222.113 307.137 220.549 305.166 220.549Z"/>
            <path d="M334.264 216.712L353.853 288.435V238.715C353.853 231.778 353.511 227.088 352.828 224.643C351.891 221.345 350.32 219.753 348.114 219.867V216.712H361.231V219.867C359.553 220.492 358.42 221.317 357.835 222.34C357.269 223.307 356.82 224.927 356.488 227.201C356.176 229.419 356.019 233.257 356.019 238.715V335H355.024L328.174 238.715V312.229C328.174 318.881 328.691 323.373 329.726 325.704C330.78 328.035 331.98 329.201 333.327 329.201H334.264V332.356H320.18V329.201C322.367 329.144 323.889 327.836 324.748 325.278C325.607 322.719 326.037 318.37 326.037 312.229V230.613L325.187 227.543C324.348 224.472 323.606 222.454 322.962 221.487C322.318 220.521 321.391 219.981 320.18 219.867V216.712H334.264Z"/>
            <path d="M391.531 291.761L390.037 332.356H354.784V329.201H356.101C357.253 329.201 358.18 328.604 358.883 327.41C359.391 326.614 359.781 325.249 360.054 323.316C360.269 321.952 360.376 318.37 360.376 312.57V236.497C360.376 230.584 360.269 226.889 360.054 225.41C359.84 223.932 359.4 222.653 358.737 221.573C358.092 220.436 357.214 219.867 356.101 219.867H354.784V216.712H375.953V219.867H374.226C373.074 219.867 372.147 220.464 371.444 221.658C370.937 222.454 370.537 223.819 370.244 225.752C370.029 227.116 369.922 230.698 369.922 236.497V310.182C369.922 316.095 370.039 319.876 370.273 321.525C370.507 323.117 370.966 324.311 371.649 325.107C372.137 325.619 373.318 325.875 375.192 325.875H378.501C380.609 325.875 382.366 324.794 383.771 322.634C385.177 320.473 386.387 317.062 387.402 312.4C388.437 307.738 389.413 300.858 390.33 291.761H391.531Z"/>
            <path d="M406.633 329.201V332.356H385.874V329.201H387.191C388.343 329.201 389.27 328.604 389.973 327.41C390.48 326.614 390.871 325.249 391.144 323.316C391.359 321.952 391.466 318.37 391.466 312.57V236.497C391.466 230.584 391.359 226.889 391.144 225.41C390.929 223.932 390.49 222.653 389.826 221.573C389.182 220.436 388.304 219.867 387.191 219.867H385.874V216.712H406.633V219.867H405.316C404.164 219.867 403.237 220.464 402.534 221.658C402.027 222.454 401.626 223.819 401.334 225.752C401.119 227.116 401.011 230.698 401.011 236.497V312.57C401.011 318.483 401.119 322.179 401.334 323.657C401.568 325.136 402.007 326.443 402.651 327.58C403.315 328.661 404.203 329.201 405.316 329.201H406.633Z"/>
            <path d="M413.977 216.712L433.565 288.435V238.715C433.565 231.778 433.224 227.088 432.54 224.643C431.603 221.345 430.032 219.753 427.826 219.867V216.712H440.944V219.867C439.265 220.492 438.133 221.317 437.547 222.34C436.981 223.307 436.532 224.927 436.2 227.201C435.888 229.419 435.732 233.257 435.732 238.715V335H434.736L407.886 238.715V312.229C407.886 318.881 408.404 323.373 409.438 325.704C410.492 328.035 411.693 329.201 413.04 329.201H413.977V332.356H399.893V329.201C402.079 329.144 403.602 327.836 404.461 325.278C405.32 322.719 405.749 318.37 405.749 312.229V230.613L404.9 227.543C404.061 224.472 403.319 222.454 402.675 221.487C402.03 220.521 401.103 219.981 399.893 219.867V216.712H413.977Z"/>
            <path d="M449.722 223.364V270.44H450.513C453.031 270.44 454.856 268.138 455.988 263.532C457.12 258.927 457.842 252.133 458.155 243.149H459.267V303.701H458.155C457.921 297.106 457.423 291.704 456.661 287.497C455.92 283.29 455.051 280.475 454.056 279.054C453.06 277.576 451.616 276.837 449.722 276.837V309.415C449.722 315.783 449.81 319.677 449.986 321.099C450.181 322.52 450.532 323.686 451.04 324.595C451.547 325.505 452.367 325.96 453.499 325.96H455.871C459.58 325.96 462.547 323.458 464.772 318.455C467.017 313.452 468.627 305.833 469.603 295.599H470.687L468.901 332.356H434.584V329.201H435.902C437.053 329.201 437.981 328.604 438.683 327.41C439.191 326.614 439.581 325.249 439.855 323.316C440.069 321.952 440.177 318.37 440.177 312.57V236.497C440.177 231.267 440.128 228.054 440.03 226.86C439.835 224.87 439.474 223.335 438.947 222.255C438.205 220.663 437.19 219.867 435.902 219.867H434.584V216.712H467.817V250.91H466.705C466.139 242.552 465.338 236.554 464.304 232.915C463.289 229.277 461.844 226.604 459.97 224.899C458.877 223.875 456.827 223.364 453.821 223.364H449.722Z"/>
        </mask>
        <path d="M229.138 12.2959V59.3725H229.928C232.447 59.3725 234.272 57.0699 235.404 52.4645C236.536 47.8592 237.258 41.0649 237.571 32.0817H238.683V92.6331H237.571C237.336 86.0379 236.839 80.6366 236.077 76.4292C235.336 72.2219 234.467 69.4076 233.471 67.9862C232.476 66.5079 231.031 65.7688 229.138 65.7688V98.3471C229.138 104.715 229.226 108.61 229.401 110.031C229.597 111.452 229.948 112.618 230.455 113.528C230.963 114.437 231.783 114.892 232.915 114.892H235.287C238.996 114.892 241.963 112.391 244.188 107.387C246.433 102.384 248.043 94.7652 249.019 84.5312H250.103L248.316 121.288H214V118.133H215.318C216.469 118.133 217.397 117.536 218.099 116.342C218.607 115.546 218.997 114.181 219.27 112.248C219.485 110.884 219.593 107.302 219.593 101.503V25.4296C219.593 20.1989 219.544 16.9865 219.446 15.7926C219.251 13.8026 218.89 12.2675 218.363 11.1872C217.621 9.59527 216.606 8.79929 215.318 8.79929H214V5.64379H247.233V39.8425H246.12C245.554 31.4847 244.754 25.4865 243.719 21.8477C242.704 18.2089 241.26 15.5367 239.386 13.831C238.293 12.8076 236.243 12.2959 233.237 12.2959H229.138Z" fill="#FCBE11"/>
        <path d="M259.73 68.5831V100.991C259.73 107.245 259.857 111.197 260.111 112.845C260.384 114.437 260.852 115.717 261.516 116.683C262.18 117.65 263.419 118.133 265.235 118.133V121.288H244.914V118.133C246.749 118.133 247.988 117.65 248.633 116.683C249.296 115.66 249.755 114.352 250.009 112.76C250.282 111.168 250.419 107.245 250.419 100.991V25.9413C250.419 19.6872 250.282 15.7641 250.009 14.1722C249.755 12.5233 249.296 11.2157 248.633 10.2491C247.969 9.28256 246.729 8.79929 244.914 8.79929V5.64379H263.361C268.163 5.64379 271.676 6.61034 273.901 8.54344C276.127 10.4765 277.942 14.0585 279.348 19.2892C280.753 24.4631 281.456 30.5466 281.456 37.5399C281.456 46.0683 280.402 53.1184 278.294 58.6902C276.947 62.2153 275.063 64.8591 272.642 66.6216L282.188 105.767C283.437 110.827 284.325 113.982 284.852 115.233C285.653 116.996 286.58 117.962 287.634 118.133V121.288H275.131L262.336 68.5831H259.73ZM259.73 11.8695V62.528H261.399C264.112 62.528 266.142 61.8173 267.489 60.3959C268.836 58.9177 269.89 56.3023 270.651 52.5498C271.432 48.7405 271.823 43.794 271.823 37.7105C271.823 28.8978 271.11 22.3878 269.685 18.1805C268.28 13.9732 266.006 11.8695 262.863 11.8695H259.73Z" fill="#FCBE11"/>
        <path d="M286.428 8.79929L286.75 5.64379H306.133L305.753 8.79929C303.996 8.79929 302.649 9.93641 301.712 12.2106C300.794 14.4849 299.984 19.2323 299.282 26.453L292.02 100.479C291.493 105.71 291.23 109.207 291.23 110.969C291.23 113.016 291.503 114.608 292.049 115.745C292.752 117.223 294.079 118.019 296.031 118.133L295.739 121.288H276.033L276.355 118.133C278.327 118.133 279.771 117.053 280.689 114.892C281.606 112.675 282.436 107.87 283.177 100.479L290.498 26.453C290.946 21.9045 291.171 18.4648 291.171 16.1337C291.171 14.03 290.898 12.3812 290.351 11.1872C289.805 9.99326 288.497 9.19728 286.428 8.79929Z" fill="#FCBE11"/>
        <path d="M307.445 5.64379L327.033 77.3674V27.647C327.033 20.7106 326.692 16.02 326.009 13.5752C325.072 10.2775 323.5 8.68558 321.294 8.79929V5.64379H334.412V8.79929C332.733 9.4247 331.601 10.2491 331.016 11.2725C330.449 12.2391 330 13.8595 329.669 16.1337C329.356 18.3511 329.2 22.1888 329.2 27.647V123.932H328.205L301.355 27.647V101.162C301.355 107.814 301.872 112.305 302.906 114.636C303.961 116.967 305.161 118.133 306.508 118.133H307.445V121.288H293.361V118.133C295.547 118.076 297.07 116.768 297.929 114.21C298.788 111.651 299.217 107.302 299.217 101.162V19.545L298.368 16.4748C297.529 13.4046 296.787 11.3862 296.143 10.4197C295.499 9.45313 294.571 8.913 293.361 8.79929V5.64379H307.445Z" fill="#FCBE11"/>
        <path d="M350.013 4.0234C356.337 3.34113 361.471 8.71401 365.414 20.142C369.377 31.57 371.358 45.8693 371.358 63.0397C371.358 77.7085 369.884 90.6148 366.936 101.758C363.032 116.541 357.518 123.932 350.393 123.932C343.249 123.932 337.725 116.882 333.821 102.782C330.736 91.6382 329.194 78.4192 329.194 63.125C329.194 45.9545 331.195 31.6553 335.197 20.2273C339.218 8.74243 344.156 3.34113 350.013 4.0234ZM350.364 9.48156C346.733 9.48156 343.971 14.8829 342.078 25.6855C340.535 34.555 339.764 47.2907 339.764 63.8925C339.764 83.6215 340.955 98.205 343.337 107.643C344.996 114.238 347.319 117.536 350.305 117.536C352.316 117.536 353.995 116.115 355.342 113.272C357.059 109.633 358.396 103.834 359.353 95.8739C360.309 87.8573 360.788 77.4242 360.788 64.5748C360.788 49.2806 360.3 37.8526 359.324 30.2908C358.348 22.6721 357.098 17.2992 355.576 14.1722C354.073 11.0451 352.335 9.48156 350.364 9.48156Z" fill="#FCBE11"/>
        <path d="M378.813 8.79929L379.135 5.64379H398.518L398.137 8.79929C396.381 8.79929 395.034 9.93641 394.097 12.2106C393.179 14.4849 392.369 19.2323 391.667 26.453L384.405 100.479C383.878 105.71 383.615 109.207 383.615 110.969C383.615 113.016 383.888 114.608 384.434 115.745C385.137 117.223 386.464 118.019 388.416 118.133L388.124 121.288H368.418L368.74 118.133C370.712 118.133 372.156 117.053 373.074 114.892C373.991 112.675 374.821 107.87 375.562 100.479L382.883 26.453C383.331 21.9045 383.556 18.4648 383.556 16.1337C383.556 14.03 383.283 12.3812 382.736 11.1872C382.19 9.99326 380.882 9.19728 378.813 8.79929Z" fill="#FCBE11"/>
        <path d="M413.065 3L413.387 41.5482H412.186C411.62 31.8827 410.224 24.1219 407.999 18.2658C405.793 12.3528 403.402 9.39628 400.825 9.39628C398.834 9.39628 397.253 10.9598 396.082 14.0869C394.93 17.1571 394.354 20.7106 394.354 24.7473C394.354 27.3058 394.559 29.5801 394.969 31.57C395.535 34.2423 396.443 36.886 397.692 39.5014C398.61 41.3777 400.728 44.7037 404.046 49.4796C408.692 56.1317 411.825 62.4143 413.445 68.3273C415.046 74.2403 415.846 81.0061 415.846 88.6248C415.846 98.2903 414.548 106.62 411.952 113.613C409.375 120.549 406.096 124.018 402.114 124.018C400.864 124.018 399.683 123.648 398.571 122.909C397.458 122.17 396.063 120.777 394.384 118.73C393.447 117.593 392.676 117.024 392.071 117.024C391.563 117.024 391.026 117.593 390.46 118.73C389.894 119.867 389.435 121.601 389.084 123.932H388.001V80.267H389.084C389.943 92.5479 391.592 101.929 394.032 108.411C396.492 114.835 399.137 118.048 401.967 118.048C404.154 118.048 405.891 116.314 407.179 112.845C408.487 109.377 409.141 105.34 409.141 100.735C409.141 98.006 408.887 95.3622 408.38 92.8037C407.892 90.2452 407.14 87.8288 406.125 85.5546C405.11 83.2235 403.314 80.2102 400.738 76.5145C397.126 71.3406 394.53 66.9343 392.949 63.2956C391.368 59.6568 390.148 55.5916 389.289 51.1C388.45 46.6084 388.03 41.6619 388.03 36.2606C388.03 27.05 389.191 19.2039 391.514 12.7223C393.837 6.24078 396.765 3 400.298 3C401.587 3 402.836 3.45485 404.046 4.36454C404.964 5.04681 406.076 6.32606 407.384 8.2023C408.712 10.0217 409.639 10.9314 410.166 10.9314C410.673 10.9314 411.074 10.4765 411.366 9.56684C411.659 8.65715 411.932 6.4682 412.186 3H413.065Z" fill="#FCBE11"/>
        <path d="M417.568 8.79929L417.89 5.64379H437.273L436.893 8.79929C435.136 8.79929 433.789 9.93641 432.852 12.2106C431.935 14.4849 431.125 19.2323 430.422 26.453L423.16 100.479C422.633 105.71 422.37 109.207 422.37 110.969C422.37 113.016 422.643 114.608 423.19 115.745C423.892 117.223 425.22 118.019 427.172 118.133L426.879 121.288H407.173L407.495 118.133C409.467 118.133 410.912 117.053 411.829 114.892C412.746 112.675 413.576 107.87 414.318 100.479L421.638 26.453C422.087 21.9045 422.311 18.4648 422.311 16.1337C422.311 14.03 422.038 12.3812 421.491 11.1872C420.945 9.99326 419.637 9.19728 417.568 8.79929Z" fill="#FCBE11"/>
        <path d="M424.443 121.288V118.133H425.76C426.912 118.133 427.791 117.621 428.396 116.598C429.02 115.518 429.479 114.068 429.772 112.248C429.948 111.054 430.035 107.473 430.035 101.503V25.4296C430.035 19.5166 429.928 15.821 429.713 14.3427C429.499 12.8645 429.059 11.5852 428.396 10.505C427.752 9.36785 426.873 8.79929 425.76 8.79929H424.443V5.64379H442.216C446.959 5.64379 450.776 7.52003 453.665 11.2725C457.198 15.8778 459.872 22.8427 461.687 32.167C463.522 41.4914 464.44 52.0381 464.44 63.8073C464.44 71.9376 463.991 79.4426 463.093 86.3222C462.195 93.1448 461.033 98.802 459.608 103.294C458.183 107.728 456.534 111.31 454.66 114.039C452.806 116.712 450.532 118.787 447.838 120.265C446.647 120.947 444.773 121.288 442.216 121.288H424.443ZM439.581 12.2106V102.441C439.581 107.217 439.659 110.145 439.815 111.225C439.971 112.305 440.235 113.13 440.606 113.698C441.133 114.551 441.894 114.977 442.889 114.977C446.149 114.977 448.638 111.737 450.356 105.255C452.698 96.4993 453.87 82.9108 453.87 64.4895C453.87 49.6502 453.069 37.7957 451.469 28.9262C450.2 21.9898 448.57 17.2708 446.579 14.7691C445.173 13.0066 442.841 12.1538 439.581 12.2106Z" fill="#FCBE11"/>
        <path d="M484.151 4.0234C490.476 3.34113 495.609 8.71401 499.553 20.142C503.515 31.57 505.496 45.8693 505.496 63.0397C505.496 77.7085 504.023 90.6148 501.075 101.758C497.171 116.541 491.657 123.932 484.532 123.932C477.387 123.932 471.863 116.882 467.959 102.782C464.875 91.6382 463.333 78.4192 463.333 63.125C463.333 45.9545 465.334 31.6553 469.335 20.2273C473.356 8.74243 478.295 3.34113 484.151 4.0234ZM484.502 9.48156C480.872 9.48156 478.11 14.8829 476.216 25.6855C474.674 34.555 473.903 47.2907 473.903 63.8925C473.903 83.6215 475.094 98.205 477.475 107.643C479.134 114.238 481.457 117.536 484.444 117.536C486.454 117.536 488.133 116.115 489.48 113.272C491.198 109.633 492.535 103.834 493.492 95.8739C494.448 87.8573 494.926 77.4242 494.926 64.5748C494.926 49.2806 494.438 37.8526 493.462 30.2908C492.486 22.6721 491.237 17.2992 489.714 14.1722C488.211 11.0451 486.474 9.48156 484.502 9.48156Z" fill="#FCBE11"/>
        <path d="M514.597 68.5831V100.991C514.597 107.245 514.724 111.197 514.977 112.845C515.251 114.437 515.719 115.717 516.383 116.683C517.046 117.65 518.286 118.133 520.101 118.133V121.288H499.781V118.133C501.616 118.133 502.855 117.65 503.499 116.683C504.163 115.66 504.622 114.352 504.876 112.76C505.149 111.168 505.286 107.245 505.286 100.991V25.9413C505.286 19.6872 505.149 15.7641 504.876 14.1722C504.622 12.5233 504.163 11.2157 503.499 10.2491C502.836 9.28256 501.596 8.79929 499.781 8.79929V5.64379H518.227C523.029 5.64379 526.543 6.61034 528.768 8.54344C530.994 10.4765 532.809 14.0585 534.214 19.2892C535.62 24.4631 536.323 30.5466 536.323 37.5399C536.323 46.0683 535.269 53.1184 533.16 58.6902C531.813 62.2153 529.93 64.8591 527.509 66.6216L537.055 105.767C538.304 110.827 539.192 113.982 539.719 115.233C540.519 116.996 541.447 117.962 542.501 118.133V121.288H529.998L517.203 68.5831H514.597ZM514.597 11.8695V62.528H516.266C518.979 62.528 521.009 61.8173 522.356 60.3959C523.703 58.9177 524.757 56.3023 525.518 52.5498C526.299 48.7405 526.689 43.794 526.689 37.7105C526.689 28.8978 525.977 22.3878 524.552 18.1805C523.146 13.9732 520.872 11.8695 517.73 11.8695H514.597Z" fill="#FCBE11"/>
        <path d="M541.294 8.79929L541.616 5.64379H561L560.619 8.79929C558.863 8.79929 557.516 9.93641 556.579 12.2106C555.661 14.4849 554.851 19.2323 554.148 26.453L546.887 100.479C546.36 105.71 546.096 109.207 546.096 110.969C546.096 113.016 546.37 114.608 546.916 115.745C547.619 117.223 548.946 118.019 550.898 118.133L550.606 121.288H530.9L531.222 118.133C533.194 118.133 534.638 117.053 535.555 114.892C536.473 112.675 537.303 107.87 538.044 100.479L545.364 26.453C545.813 21.9045 546.038 18.4648 546.038 16.1337C546.038 14.03 545.765 12.3812 545.218 11.1872C544.671 9.99326 543.364 9.19728 541.294 8.79929Z" fill="#FCBE11"/>
        <path d="M304.814 215.091C311.139 214.409 316.273 219.782 320.216 231.21C324.178 242.638 326.159 256.937 326.159 274.107C326.159 288.776 324.686 301.683 321.738 312.826C317.834 327.609 312.32 335 305.195 335C298.05 335 292.526 327.95 288.622 313.85C285.538 302.706 283.996 289.487 283.996 274.193C283.996 257.022 285.997 242.723 289.998 231.295C294.02 219.81 298.958 214.409 304.814 215.091ZM305.166 220.549C301.535 220.549 298.773 225.951 296.879 236.753C295.337 245.623 294.566 258.358 294.566 274.96C294.566 294.689 295.757 309.273 298.138 318.711C299.798 325.306 302.12 328.604 305.107 328.604C307.118 328.604 308.796 327.182 310.143 324.34C311.861 320.701 313.198 314.901 314.155 306.942C315.111 298.925 315.589 288.492 315.589 275.643C315.589 260.348 315.101 248.92 314.125 241.359C313.149 233.74 311.9 228.367 310.377 225.24C308.874 222.113 307.137 220.549 305.166 220.549Z" fill="#FCBE11"/>
        <path d="M334.264 216.712L353.853 288.435V238.715C353.853 231.778 353.511 227.088 352.828 224.643C351.891 221.345 350.32 219.753 348.114 219.867V216.712H361.231V219.867C359.553 220.492 358.42 221.317 357.835 222.34C357.269 223.307 356.82 224.927 356.488 227.201C356.176 229.419 356.019 233.257 356.019 238.715V335H355.024L328.174 238.715V312.229C328.174 318.881 328.691 323.373 329.726 325.704C330.78 328.035 331.98 329.201 333.327 329.201H334.264V332.356H320.18V329.201C322.367 329.144 323.889 327.836 324.748 325.278C325.607 322.719 326.037 318.37 326.037 312.229V230.613L325.187 227.543C324.348 224.472 323.606 222.454 322.962 221.487C322.318 220.521 321.391 219.981 320.18 219.867V216.712H334.264Z" fill="#FCBE11"/>
        <path d="M391.531 291.761L390.037 332.356H354.784V329.201H356.101C357.253 329.201 358.18 328.604 358.883 327.41C359.391 326.614 359.781 325.249 360.054 323.316C360.269 321.952 360.376 318.37 360.376 312.57V236.497C360.376 230.584 360.269 226.889 360.054 225.41C359.84 223.932 359.4 222.653 358.737 221.573C358.092 220.436 357.214 219.867 356.101 219.867H354.784V216.712H375.953V219.867H374.226C373.074 219.867 372.147 220.464 371.444 221.658C370.937 222.454 370.537 223.819 370.244 225.752C370.029 227.116 369.922 230.698 369.922 236.497V310.182C369.922 316.095 370.039 319.876 370.273 321.525C370.507 323.117 370.966 324.311 371.649 325.107C372.137 325.619 373.318 325.875 375.192 325.875H378.501C380.609 325.875 382.366 324.794 383.771 322.634C385.177 320.473 386.387 317.062 387.402 312.4C388.437 307.738 389.413 300.858 390.33 291.761H391.531Z" fill="#FCBE11"/>
        <path d="M406.633 329.201V332.356H385.874V329.201H387.191C388.343 329.201 389.27 328.604 389.973 327.41C390.48 326.614 390.871 325.249 391.144 323.316C391.359 321.952 391.466 318.37 391.466 312.57V236.497C391.466 230.584 391.359 226.889 391.144 225.41C390.929 223.932 390.49 222.653 389.826 221.573C389.182 220.436 388.304 219.867 387.191 219.867H385.874V216.712H406.633V219.867H405.316C404.164 219.867 403.237 220.464 402.534 221.658C402.027 222.454 401.626 223.819 401.334 225.752C401.119 227.116 401.011 230.698 401.011 236.497V312.57C401.011 318.483 401.119 322.179 401.334 323.657C401.568 325.136 402.007 326.443 402.651 327.58C403.315 328.661 404.203 329.201 405.316 329.201H406.633Z" fill="#FCBE11"/>
        <path d="M413.977 216.712L433.565 288.435V238.715C433.565 231.778 433.224 227.088 432.54 224.643C431.603 221.345 430.032 219.753 427.826 219.867V216.712H440.944V219.867C439.265 220.492 438.133 221.317 437.547 222.34C436.981 223.307 436.532 224.927 436.2 227.201C435.888 229.419 435.732 233.257 435.732 238.715V335H434.736L407.886 238.715V312.229C407.886 318.881 408.404 323.373 409.438 325.704C410.492 328.035 411.693 329.201 413.04 329.201H413.977V332.356H399.893V329.201C402.079 329.144 403.602 327.836 404.461 325.278C405.32 322.719 405.749 318.37 405.749 312.229V230.613L404.9 227.543C404.061 224.472 403.319 222.454 402.675 221.487C402.03 220.521 401.103 219.981 399.893 219.867V216.712H413.977Z" fill="#FCBE11"/>
        <path d="M449.722 223.364V270.44H450.513C453.031 270.44 454.856 268.138 455.988 263.532C457.12 258.927 457.842 252.133 458.155 243.149H459.267V303.701H458.155C457.921 297.106 457.423 291.704 456.661 287.497C455.92 283.29 455.051 280.475 454.056 279.054C453.06 277.576 451.616 276.837 449.722 276.837V309.415C449.722 315.783 449.81 319.677 449.986 321.099C450.181 322.52 450.532 323.686 451.04 324.595C451.547 325.505 452.367 325.96 453.499 325.96H455.871C459.58 325.96 462.547 323.458 464.772 318.455C467.017 313.452 468.627 305.833 469.603 295.599H470.687L468.901 332.356H434.584V329.201H435.902C437.053 329.201 437.981 328.604 438.683 327.41C439.191 326.614 439.581 325.249 439.855 323.316C440.069 321.952 440.177 318.37 440.177 312.57V236.497C440.177 231.267 440.128 228.054 440.03 226.86C439.835 224.87 439.474 223.335 438.947 222.255C438.205 220.663 437.19 219.867 435.902 219.867H434.584V216.712H467.817V250.91H466.705C466.139 242.552 465.338 236.554 464.304 232.915C463.289 229.277 461.844 226.604 459.97 224.899C458.877 223.875 456.827 223.364 453.821 223.364H449.722Z" fill="#FCBE11"/>
        <path d="M229.138 12.2959V59.3725H229.928C232.447 59.3725 234.272 57.0699 235.404 52.4645C236.536 47.8592 237.258 41.0649 237.571 32.0817H238.683V92.6331H237.571C237.336 86.0379 236.839 80.6366 236.077 76.4292C235.336 72.2219 234.467 69.4076 233.471 67.9862C232.476 66.5079 231.031 65.7688 229.138 65.7688V98.3471C229.138 104.715 229.226 108.61 229.401 110.031C229.597 111.452 229.948 112.618 230.455 113.528C230.963 114.437 231.783 114.892 232.915 114.892H235.287C238.996 114.892 241.963 112.391 244.188 107.387C246.433 102.384 248.043 94.7652 249.019 84.5312H250.103L248.316 121.288H214V118.133H215.318C216.469 118.133 217.397 117.536 218.099 116.342C218.607 115.546 218.997 114.181 219.27 112.248C219.485 110.884 219.593 107.302 219.593 101.503V25.4296C219.593 20.1989 219.544 16.9865 219.446 15.7926C219.251 13.8026 218.89 12.2675 218.363 11.1872C217.621 9.59527 216.606 8.79929 215.318 8.79929H214V5.64379H247.233V39.8425H246.12C245.554 31.4847 244.754 25.4865 243.719 21.8477C242.704 18.2089 241.26 15.5367 239.386 13.831C238.293 12.8076 236.243 12.2959 233.237 12.2959H229.138Z" stroke="#104626" stroke-width="6" mask="url(#path-11-outside-1_0_1)"/>
        <path d="M259.73 68.5831V100.991C259.73 107.245 259.857 111.197 260.111 112.845C260.384 114.437 260.852 115.717 261.516 116.683C262.18 117.65 263.419 118.133 265.235 118.133V121.288H244.914V118.133C246.749 118.133 247.988 117.65 248.633 116.683C249.296 115.66 249.755 114.352 250.009 112.76C250.282 111.168 250.419 107.245 250.419 100.991V25.9413C250.419 19.6872 250.282 15.7641 250.009 14.1722C249.755 12.5233 249.296 11.2157 248.633 10.2491C247.969 9.28256 246.729 8.79929 244.914 8.79929V5.64379H263.361C268.163 5.64379 271.676 6.61034 273.901 8.54344C276.127 10.4765 277.942 14.0585 279.348 19.2892C280.753 24.4631 281.456 30.5466 281.456 37.5399C281.456 46.0683 280.402 53.1184 278.294 58.6902C276.947 62.2153 275.063 64.8591 272.642 66.6216L282.188 105.767C283.437 110.827 284.325 113.982 284.852 115.233C285.653 116.996 286.58 117.962 287.634 118.133V121.288H275.131L262.336 68.5831H259.73ZM259.73 11.8695V62.528H261.399C264.112 62.528 266.142 61.8173 267.489 60.3959C268.836 58.9177 269.89 56.3023 270.651 52.5498C271.432 48.7405 271.823 43.794 271.823 37.7105C271.823 28.8978 271.11 22.3878 269.685 18.1805C268.28 13.9732 266.006 11.8695 262.863 11.8695H259.73Z" stroke="#104626" stroke-width="6" mask="url(#path-11-outside-1_0_1)"/>
        <path d="M286.428 8.79929L286.75 5.64379H306.133L305.753 8.79929C303.996 8.79929 302.649 9.93641 301.712 12.2106C300.794 14.4849 299.984 19.2323 299.282 26.453L292.02 100.479C291.493 105.71 291.23 109.207 291.23 110.969C291.23 113.016 291.503 114.608 292.049 115.745C292.752 117.223 294.079 118.019 296.031 118.133L295.739 121.288H276.033L276.355 118.133C278.327 118.133 279.771 117.053 280.689 114.892C281.606 112.675 282.436 107.87 283.177 100.479L290.498 26.453C290.946 21.9045 291.171 18.4648 291.171 16.1337C291.171 14.03 290.898 12.3812 290.351 11.1872C289.805 9.99326 288.497 9.19728 286.428 8.79929Z" stroke="#104626" stroke-width="6" mask="url(#path-11-outside-1_0_1)"/>
        <path d="M307.445 5.64379L327.033 77.3674V27.647C327.033 20.7106 326.692 16.02 326.009 13.5752C325.072 10.2775 323.5 8.68558 321.294 8.79929V5.64379H334.412V8.79929C332.733 9.4247 331.601 10.2491 331.016 11.2725C330.449 12.2391 330 13.8595 329.669 16.1337C329.356 18.3511 329.2 22.1888 329.2 27.647V123.932H328.205L301.355 27.647V101.162C301.355 107.814 301.872 112.305 302.906 114.636C303.961 116.967 305.161 118.133 306.508 118.133H307.445V121.288H293.361V118.133C295.547 118.076 297.07 116.768 297.929 114.21C298.788 111.651 299.217 107.302 299.217 101.162V19.545L298.368 16.4748C297.529 13.4046 296.787 11.3862 296.143 10.4197C295.499 9.45313 294.571 8.913 293.361 8.79929V5.64379H307.445Z" stroke="#104626" stroke-width="6" mask="url(#path-11-outside-1_0_1)"/>
        <path d="M350.013 4.0234C356.337 3.34113 361.471 8.71401 365.414 20.142C369.377 31.57 371.358 45.8693 371.358 63.0397C371.358 77.7085 369.884 90.6148 366.936 101.758C363.032 116.541 357.518 123.932 350.393 123.932C343.249 123.932 337.725 116.882 333.821 102.782C330.736 91.6382 329.194 78.4192 329.194 63.125C329.194 45.9545 331.195 31.6553 335.197 20.2273C339.218 8.74243 344.156 3.34113 350.013 4.0234ZM350.364 9.48156C346.733 9.48156 343.971 14.8829 342.078 25.6855C340.535 34.555 339.764 47.2907 339.764 63.8925C339.764 83.6215 340.955 98.205 343.337 107.643C344.996 114.238 347.319 117.536 350.305 117.536C352.316 117.536 353.995 116.115 355.342 113.272C357.059 109.633 358.396 103.834 359.353 95.8739C360.309 87.8573 360.788 77.4242 360.788 64.5748C360.788 49.2806 360.3 37.8526 359.324 30.2908C358.348 22.6721 357.098 17.2992 355.576 14.1722C354.073 11.0451 352.335 9.48156 350.364 9.48156Z" stroke="#104626" stroke-width="6" mask="url(#path-11-outside-1_0_1)"/>
        <path d="M378.813 8.79929L379.135 5.64379H398.518L398.137 8.79929C396.381 8.79929 395.034 9.93641 394.097 12.2106C393.179 14.4849 392.369 19.2323 391.667 26.453L384.405 100.479C383.878 105.71 383.615 109.207 383.615 110.969C383.615 113.016 383.888 114.608 384.434 115.745C385.137 117.223 386.464 118.019 388.416 118.133L388.124 121.288H368.418L368.74 118.133C370.712 118.133 372.156 117.053 373.074 114.892C373.991 112.675 374.821 107.87 375.562 100.479L382.883 26.453C383.331 21.9045 383.556 18.4648 383.556 16.1337C383.556 14.03 383.283 12.3812 382.736 11.1872C382.19 9.99326 380.882 9.19728 378.813 8.79929Z" stroke="#104626" stroke-width="6" mask="url(#path-11-outside-1_0_1)"/>
        <path d="M413.065 3L413.387 41.5482H412.186C411.62 31.8827 410.224 24.1219 407.999 18.2658C405.793 12.3528 403.402 9.39628 400.825 9.39628C398.834 9.39628 397.253 10.9598 396.082 14.0869C394.93 17.1571 394.354 20.7106 394.354 24.7473C394.354 27.3058 394.559 29.5801 394.969 31.57C395.535 34.2423 396.443 36.886 397.692 39.5014C398.61 41.3777 400.728 44.7037 404.046 49.4796C408.692 56.1317 411.825 62.4143 413.445 68.3273C415.046 74.2403 415.846 81.0061 415.846 88.6248C415.846 98.2903 414.548 106.62 411.952 113.613C409.375 120.549 406.096 124.018 402.114 124.018C400.864 124.018 399.683 123.648 398.571 122.909C397.458 122.17 396.063 120.777 394.384 118.73C393.447 117.593 392.676 117.024 392.071 117.024C391.563 117.024 391.026 117.593 390.46 118.73C389.894 119.867 389.435 121.601 389.084 123.932H388.001V80.267H389.084C389.943 92.5479 391.592 101.929 394.032 108.411C396.492 114.835 399.137 118.048 401.967 118.048C404.154 118.048 405.891 116.314 407.179 112.845C408.487 109.377 409.141 105.34 409.141 100.735C409.141 98.006 408.887 95.3622 408.38 92.8037C407.892 90.2452 407.14 87.8288 406.125 85.5546C405.11 83.2235 403.314 80.2102 400.738 76.5145C397.126 71.3406 394.53 66.9343 392.949 63.2956C391.368 59.6568 390.148 55.5916 389.289 51.1C388.45 46.6084 388.03 41.6619 388.03 36.2606C388.03 27.05 389.191 19.2039 391.514 12.7223C393.837 6.24078 396.765 3 400.298 3C401.587 3 402.836 3.45485 404.046 4.36454C404.964 5.04681 406.076 6.32606 407.384 8.2023C408.712 10.0217 409.639 10.9314 410.166 10.9314C410.673 10.9314 411.074 10.4765 411.366 9.56684C411.659 8.65715 411.932 6.4682 412.186 3H413.065Z" stroke="#104626" stroke-width="6" mask="url(#path-11-outside-1_0_1)"/>
        <path d="M417.568 8.79929L417.89 5.64379H437.273L436.893 8.79929C435.136 8.79929 433.789 9.93641 432.852 12.2106C431.935 14.4849 431.125 19.2323 430.422 26.453L423.16 100.479C422.633 105.71 422.37 109.207 422.37 110.969C422.37 113.016 422.643 114.608 423.19 115.745C423.892 117.223 425.22 118.019 427.172 118.133L426.879 121.288H407.173L407.495 118.133C409.467 118.133 410.912 117.053 411.829 114.892C412.746 112.675 413.576 107.87 414.318 100.479L421.638 26.453C422.087 21.9045 422.311 18.4648 422.311 16.1337C422.311 14.03 422.038 12.3812 421.491 11.1872C420.945 9.99326 419.637 9.19728 417.568 8.79929Z" stroke="#104626" stroke-width="6" mask="url(#path-11-outside-1_0_1)"/>
        <path d="M424.443 121.288V118.133H425.76C426.912 118.133 427.791 117.621 428.396 116.598C429.02 115.518 429.479 114.068 429.772 112.248C429.948 111.054 430.035 107.473 430.035 101.503V25.4296C430.035 19.5166 429.928 15.821 429.713 14.3427C429.499 12.8645 429.059 11.5852 428.396 10.505C427.752 9.36785 426.873 8.79929 425.76 8.79929H424.443V5.64379H442.216C446.959 5.64379 450.776 7.52003 453.665 11.2725C457.198 15.8778 459.872 22.8427 461.687 32.167C463.522 41.4914 464.44 52.0381 464.44 63.8073C464.44 71.9376 463.991 79.4426 463.093 86.3222C462.195 93.1448 461.033 98.802 459.608 103.294C458.183 107.728 456.534 111.31 454.66 114.039C452.806 116.712 450.532 118.787 447.838 120.265C446.647 120.947 444.773 121.288 442.216 121.288H424.443ZM439.581 12.2106V102.441C439.581 107.217 439.659 110.145 439.815 111.225C439.971 112.305 440.235 113.13 440.606 113.698C441.133 114.551 441.894 114.977 442.889 114.977C446.149 114.977 448.638 111.737 450.356 105.255C452.698 96.4993 453.87 82.9108 453.87 64.4895C453.87 49.6502 453.069 37.7957 451.469 28.9262C450.2 21.9898 448.57 17.2708 446.579 14.7691C445.173 13.0066 442.841 12.1538 439.581 12.2106Z" stroke="#104626" stroke-width="6" mask="url(#path-11-outside-1_0_1)"/>
        <path d="M484.151 4.0234C490.476 3.34113 495.609 8.71401 499.553 20.142C503.515 31.57 505.496 45.8693 505.496 63.0397C505.496 77.7085 504.023 90.6148 501.075 101.758C497.171 116.541 491.657 123.932 484.532 123.932C477.387 123.932 471.863 116.882 467.959 102.782C464.875 91.6382 463.333 78.4192 463.333 63.125C463.333 45.9545 465.334 31.6553 469.335 20.2273C473.356 8.74243 478.295 3.34113 484.151 4.0234ZM484.502 9.48156C480.872 9.48156 478.11 14.8829 476.216 25.6855C474.674 34.555 473.903 47.2907 473.903 63.8925C473.903 83.6215 475.094 98.205 477.475 107.643C479.134 114.238 481.457 117.536 484.444 117.536C486.454 117.536 488.133 116.115 489.48 113.272C491.198 109.633 492.535 103.834 493.492 95.8739C494.448 87.8573 494.926 77.4242 494.926 64.5748C494.926 49.2806 494.438 37.8526 493.462 30.2908C492.486 22.6721 491.237 17.2992 489.714 14.1722C488.211 11.0451 486.474 9.48156 484.502 9.48156Z" stroke="#104626" stroke-width="6" mask="url(#path-11-outside-1_0_1)"/>
        <path d="M514.597 68.5831V100.991C514.597 107.245 514.724 111.197 514.977 112.845C515.251 114.437 515.719 115.717 516.383 116.683C517.046 117.65 518.286 118.133 520.101 118.133V121.288H499.781V118.133C501.616 118.133 502.855 117.65 503.499 116.683C504.163 115.66 504.622 114.352 504.876 112.76C505.149 111.168 505.286 107.245 505.286 100.991V25.9413C505.286 19.6872 505.149 15.7641 504.876 14.1722C504.622 12.5233 504.163 11.2157 503.499 10.2491C502.836 9.28256 501.596 8.79929 499.781 8.79929V5.64379H518.227C523.029 5.64379 526.543 6.61034 528.768 8.54344C530.994 10.4765 532.809 14.0585 534.214 19.2892C535.62 24.4631 536.323 30.5466 536.323 37.5399C536.323 46.0683 535.269 53.1184 533.16 58.6902C531.813 62.2153 529.93 64.8591 527.509 66.6216L537.055 105.767C538.304 110.827 539.192 113.982 539.719 115.233C540.519 116.996 541.447 117.962 542.501 118.133V121.288H529.998L517.203 68.5831H514.597ZM514.597 11.8695V62.528H516.266C518.979 62.528 521.009 61.8173 522.356 60.3959C523.703 58.9177 524.757 56.3023 525.518 52.5498C526.299 48.7405 526.689 43.794 526.689 37.7105C526.689 28.8978 525.977 22.3878 524.552 18.1805C523.146 13.9732 520.872 11.8695 517.73 11.8695H514.597Z" stroke="#104626" stroke-width="6" mask="url(#path-11-outside-1_0_1)"/>
        <path d="M541.294 8.79929L541.616 5.64379H561L560.619 8.79929C558.863 8.79929 557.516 9.93641 556.579 12.2106C555.661 14.4849 554.851 19.2323 554.148 26.453L546.887 100.479C546.36 105.71 546.096 109.207 546.096 110.969C546.096 113.016 546.37 114.608 546.916 115.745C547.619 117.223 548.946 118.019 550.898 118.133L550.606 121.288H530.9L531.222 118.133C533.194 118.133 534.638 117.053 535.555 114.892C536.473 112.675 537.303 107.87 538.044 100.479L545.364 26.453C545.813 21.9045 546.038 18.4648 546.038 16.1337C546.038 14.03 545.765 12.3812 545.218 11.1872C544.671 9.99326 543.364 9.19728 541.294 8.79929Z" stroke="#104626" stroke-width="6" mask="url(#path-11-outside-1_0_1)"/>
        <path d="M304.814 215.091C311.139 214.409 316.273 219.782 320.216 231.21C324.178 242.638 326.159 256.937 326.159 274.107C326.159 288.776 324.686 301.683 321.738 312.826C317.834 327.609 312.32 335 305.195 335C298.05 335 292.526 327.95 288.622 313.85C285.538 302.706 283.996 289.487 283.996 274.193C283.996 257.022 285.997 242.723 289.998 231.295C294.02 219.81 298.958 214.409 304.814 215.091ZM305.166 220.549C301.535 220.549 298.773 225.951 296.879 236.753C295.337 245.623 294.566 258.358 294.566 274.96C294.566 294.689 295.757 309.273 298.138 318.711C299.798 325.306 302.12 328.604 305.107 328.604C307.118 328.604 308.796 327.182 310.143 324.34C311.861 320.701 313.198 314.901 314.155 306.942C315.111 298.925 315.589 288.492 315.589 275.643C315.589 260.348 315.101 248.92 314.125 241.359C313.149 233.74 311.9 228.367 310.377 225.24C308.874 222.113 307.137 220.549 305.166 220.549Z" stroke="#104626" stroke-width="6" mask="url(#path-11-outside-1_0_1)"/>
        <path d="M334.264 216.712L353.853 288.435V238.715C353.853 231.778 353.511 227.088 352.828 224.643C351.891 221.345 350.32 219.753 348.114 219.867V216.712H361.231V219.867C359.553 220.492 358.42 221.317 357.835 222.34C357.269 223.307 356.82 224.927 356.488 227.201C356.176 229.419 356.019 233.257 356.019 238.715V335H355.024L328.174 238.715V312.229C328.174 318.881 328.691 323.373 329.726 325.704C330.78 328.035 331.98 329.201 333.327 329.201H334.264V332.356H320.18V329.201C322.367 329.144 323.889 327.836 324.748 325.278C325.607 322.719 326.037 318.37 326.037 312.229V230.613L325.187 227.543C324.348 224.472 323.606 222.454 322.962 221.487C322.318 220.521 321.391 219.981 320.18 219.867V216.712H334.264Z" stroke="#104626" stroke-width="6" mask="url(#path-11-outside-1_0_1)"/>
        <path d="M391.531 291.761L390.037 332.356H354.784V329.201H356.101C357.253 329.201 358.18 328.604 358.883 327.41C359.391 326.614 359.781 325.249 360.054 323.316C360.269 321.952 360.376 318.37 360.376 312.57V236.497C360.376 230.584 360.269 226.889 360.054 225.41C359.84 223.932 359.4 222.653 358.737 221.573C358.092 220.436 357.214 219.867 356.101 219.867H354.784V216.712H375.953V219.867H374.226C373.074 219.867 372.147 220.464 371.444 221.658C370.937 222.454 370.537 223.819 370.244 225.752C370.029 227.116 369.922 230.698 369.922 236.497V310.182C369.922 316.095 370.039 319.876 370.273 321.525C370.507 323.117 370.966 324.311 371.649 325.107C372.137 325.619 373.318 325.875 375.192 325.875H378.501C380.609 325.875 382.366 324.794 383.771 322.634C385.177 320.473 386.387 317.062 387.402 312.4C388.437 307.738 389.413 300.858 390.33 291.761H391.531Z" stroke="#104626" stroke-width="6" mask="url(#path-11-outside-1_0_1)"/>
        <path d="M406.633 329.201V332.356H385.874V329.201H387.191C388.343 329.201 389.27 328.604 389.973 327.41C390.48 326.614 390.871 325.249 391.144 323.316C391.359 321.952 391.466 318.37 391.466 312.57V236.497C391.466 230.584 391.359 226.889 391.144 225.41C390.929 223.932 390.49 222.653 389.826 221.573C389.182 220.436 388.304 219.867 387.191 219.867H385.874V216.712H406.633V219.867H405.316C404.164 219.867 403.237 220.464 402.534 221.658C402.027 222.454 401.626 223.819 401.334 225.752C401.119 227.116 401.011 230.698 401.011 236.497V312.57C401.011 318.483 401.119 322.179 401.334 323.657C401.568 325.136 402.007 326.443 402.651 327.58C403.315 328.661 404.203 329.201 405.316 329.201H406.633Z" stroke="#104626" stroke-width="6" mask="url(#path-11-outside-1_0_1)"/>
        <path d="M413.977 216.712L433.565 288.435V238.715C433.565 231.778 433.224 227.088 432.54 224.643C431.603 221.345 430.032 219.753 427.826 219.867V216.712H440.944V219.867C439.265 220.492 438.133 221.317 437.547 222.34C436.981 223.307 436.532 224.927 436.2 227.201C435.888 229.419 435.732 233.257 435.732 238.715V335H434.736L407.886 238.715V312.229C407.886 318.881 408.404 323.373 409.438 325.704C410.492 328.035 411.693 329.201 413.04 329.201H413.977V332.356H399.893V329.201C402.079 329.144 403.602 327.836 404.461 325.278C405.32 322.719 405.749 318.37 405.749 312.229V230.613L404.9 227.543C404.061 224.472 403.319 222.454 402.675 221.487C402.03 220.521 401.103 219.981 399.893 219.867V216.712H413.977Z" stroke="#104626" stroke-width="6" mask="url(#path-11-outside-1_0_1)"/>
        <path d="M449.722 223.364V270.44H450.513C453.031 270.44 454.856 268.138 455.988 263.532C457.12 258.927 457.842 252.133 458.155 243.149H459.267V303.701H458.155C457.921 297.106 457.423 291.704 456.661 287.497C455.92 283.29 455.051 280.475 454.056 279.054C453.06 277.576 451.616 276.837 449.722 276.837V309.415C449.722 315.783 449.81 319.677 449.986 321.099C450.181 322.52 450.532 323.686 451.04 324.595C451.547 325.505 452.367 325.96 453.499 325.96H455.871C459.58 325.96 462.547 323.458 464.772 318.455C467.017 313.452 468.627 305.833 469.603 295.599H470.687L468.901 332.356H434.584V329.201H435.902C437.053 329.201 437.981 328.604 438.683 327.41C439.191 326.614 439.581 325.249 439.855 323.316C440.069 321.952 440.177 318.37 440.177 312.57V236.497C440.177 231.267 440.128 228.054 440.03 226.86C439.835 224.87 439.474 223.335 438.947 222.255C438.205 220.663 437.19 219.867 435.902 219.867H434.584V216.712H467.817V250.91H466.705C466.139 242.552 465.338 236.554 464.304 232.915C463.289 229.277 461.844 226.604 459.97 224.899C458.877 223.875 456.827 223.364 453.821 223.364H449.722Z" stroke="#104626" stroke-width="6" mask="url(#path-11-outside-1_0_1)"/>
    </g>
    <defs>
        <filter id="filter0_d_0_1" x="0" y="3" width="772" height="340" filterUnits="userSpaceOnUse" color-interpolation-filters="sRGB">
            <feFlood flood-opacity="0" result="BackgroundImageFix"/>
            <feColorMatrix in="SourceAlpha" type="matrix" values="0 0 0 0 0 0 0 0 0 0 0 0 0 0 0 0 0 0 127 0" result="hardAlpha"/>
            <feOffset dy="4"/>
            <feGaussianBlur stdDeviation="2"/>
            <feComposite in2="hardAlpha" operator="out"/>
            <feColorMatrix type="matrix" values="0 0 0 0 0 0 0 0 0 0 0 0 0 0 0 0 0 0 0.25 0"/>
            <feBlend mode="normal" in2="BackgroundImageFix" result="effect1_dropShadow_0_1"/>
            <feBlend mode="normal" in="SourceGraphic" in2="effect1_dropShadow_0_1" result="shape"/>
        </filter>
        <filter id="filter1_d_0_1" x="207" y="0" width="361.384" height="346" filterUnits="userSpaceOnUse" color-interpolation-filters="sRGB">
            <feFlood flood-opacity="0" result="BackgroundImageFix"/>
            <feColorMatrix in="SourceAlpha" type="matrix" values="0 0 0 0 0 0 0 0 0 0 0 0 0 0 0 0 0 0 127 0" result="hardAlpha"/>
            <feOffset dy="4"/>
            <feGaussianBlur stdDeviation="2"/>
            <feComposite in2="hardAlpha" operator="out"/>
            <feColorMatrix type="matrix" values="0 0 0 0 0 0 0 0 0 0 0 0 0 0 0 0 0 0 0.25 0"/>
            <feBlend mode="normal" in2="BackgroundImageFix" result="effect1_dropShadow_0_1"/>
            <feBlend mode="normal" in="SourceGraphic" in2="effect1_dropShadow_0_1" result="shape"/>
        </filter>
    </defs>
</svg>
